<svg id="my-svg" width="100%" xmlns="http://www.w3.org/2000/svg" xmlns:xlink="http://www.w3.org/1999/xlink" class="flowchart" style="max-width: 482.902px; background-color: transparent;" viewBox="0 0 482.90234375 801" role="graphics-document document" aria-roledescription="flowchart-v2"><style>#my-svg{font-family:"trebuchet ms",verdana,arial,sans-serif;font-size:16px;fill:#333;}@keyframes edge-animation-frame{from{stroke-dashoffset:0;}}@keyframes dash{to{stroke-dashoffset:0;}}#my-svg .edge-animation-slow{stroke-dasharray:9,5!important;stroke-dashoffset:900;animation:dash 50s linear infinite;stroke-linecap:round;}#my-svg .edge-animation-fast{stroke-dasharray:9,5!important;stroke-dashoffset:900;animation:dash 20s linear infinite;stroke-linecap:round;}#my-svg .error-icon{fill:#552222;}#my-svg .error-text{fill:#552222;stroke:#552222;}#my-svg .edge-thickness-normal{stroke-width:1px;}#my-svg .edge-thickness-thick{stroke-width:3.5px;}#my-svg .edge-pattern-solid{stroke-dasharray:0;}#my-svg .edge-thickness-invisible{stroke-width:0;fill:none;}#my-svg .edge-pattern-dashed{stroke-dasharray:3;}#my-svg .edge-pattern-dotted{stroke-dasharray:2;}#my-svg .marker{fill:#333333;stroke:#333333;}#my-svg .marker.cross{stroke:#333333;}#my-svg svg{font-family:"trebuchet ms",verdana,arial,sans-serif;font-size:16px;}#my-svg p{margin:0;}#my-svg .label{font-family:"trebuchet ms",verdana,arial,sans-serif;color:#333;}#my-svg .cluster-label text{fill:#333;}#my-svg .cluster-label span{color:#333;}#my-svg .cluster-label span p{background-color:transparent;}#my-svg .label text,#my-svg span{fill:#333;color:#333;}#my-svg .node rect,#my-svg .node circle,#my-svg .node ellipse,#my-svg .node polygon,#my-svg .node path{fill:#ECECFF;stroke:#9370DB;stroke-width:1px;}#my-svg .rough-node .label text,#my-svg .node .label text,#my-svg .image-shape .label,#my-svg .icon-shape .label{text-anchor:middle;}#my-svg .node .katex path{fill:#000;stroke:#000;stroke-width:1px;}#my-svg .rough-node .label,#my-svg .node .label,#my-svg .image-shape .label,#my-svg .icon-shape .label{text-align:center;}#my-svg .node.clickable{cursor:pointer;}#my-svg .root .anchor path{fill:#333333!important;stroke-width:0;stroke:#333333;}#my-svg .arrowheadPath{fill:#333333;}#my-svg .edgePath .path{stroke:#333333;stroke-width:1px;}#my-svg .flowchart-link{stroke:#333333;fill:none;}#my-svg .edgeLabel{background-color:rgba(232,232,232, 0.8);text-align:center;}#my-svg .edgeLabel p{background-color:rgba(232,232,232, 0.8);}#my-svg .edgeLabel rect{opacity:0.5;background-color:rgba(232,232,232, 0.8);fill:rgba(232,232,232, 0.8);}#my-svg .labelBkg{background-color:rgba(232, 232, 232, 0.5);}#my-svg .cluster rect{fill:#ffffde;stroke:#aaaa33;stroke-width:1px;}#my-svg .cluster text{fill:#333;}#my-svg .cluster span{color:#333;}#my-svg div.mermaidTooltip{position:absolute;text-align:center;max-width:200px;padding:2px;font-family:"trebuchet ms",verdana,arial,sans-serif;font-size:12px;background:hsl(80, 100%, 96.2745098039%);border:1px solid #aaaa33;border-radius:2px;pointer-events:none;z-index:100;}#my-svg .flowchartTitleText{text-anchor:middle;font-size:18px;fill:#333;}#my-svg rect.text{fill:none;stroke-width:0;}#my-svg .icon-shape,#my-svg .image-shape{background-color:rgba(232,232,232, 0.8);text-align:center;}#my-svg .icon-shape p,#my-svg .image-shape p{background-color:rgba(232,232,232, 0.8);padding:2px;}#my-svg .icon-shape .label rect,#my-svg .image-shape .label rect{opacity:0.5;background-color:rgba(232,232,232, 0.8);fill:rgba(232,232,232, 0.8);}#my-svg .label-icon{display:inline-block;height:1em;overflow:visible;vertical-align:-0.125em;}#my-svg .node .label-icon path{fill:currentColor;stroke:revert;stroke-width:revert;}#my-svg .node .neo-node{stroke:#9370DB;}#my-svg [data-look="neo"].node rect,#my-svg [data-look="neo"].cluster rect,#my-svg [data-look="neo"].node polygon{stroke:#9370DB;filter:drop-shadow(1px 2px 2px rgba(185, 185, 185, 1));}#my-svg [data-look="neo"].swimlane.cluster rect{filter:none;}#my-svg [data-look="neo"].node path{stroke:#9370DB;stroke-width:1px;}#my-svg [data-look="neo"].node .outer-path{filter:drop-shadow(1px 2px 2px rgba(185, 185, 185, 1));}#my-svg [data-look="neo"].node .neo-line path{stroke:#9370DB;filter:none;}#my-svg [data-look="neo"].node circle{stroke:#9370DB;filter:drop-shadow(1px 2px 2px rgba(185, 185, 185, 1));}#my-svg [data-look="neo"].node circle .state-start{fill:#000000;}#my-svg [data-look="neo"].icon-shape .icon{fill:#9370DB;filter:drop-shadow(1px 2px 2px rgba(185, 185, 185, 1));}#my-svg [data-look="neo"].icon-shape .icon-neo path{stroke:#9370DB;filter:drop-shadow(1px 2px 2px rgba(185, 185, 185, 1));}#my-svg :root{--mermaid-font-family:"trebuchet ms",verdana,arial,sans-serif;}#my-svg .model&gt;*{fill:rgb(3, 105, 161)!important;stroke:rgb(56, 189, 248)!important;stroke-width:2px!important;color:rgb(240, 249, 255)!important;}#my-svg .model span{fill:rgb(3, 105, 161)!important;stroke:rgb(56, 189, 248)!important;stroke-width:2px!important;color:rgb(240, 249, 255)!important;}#my-svg .model tspan{fill:rgb(240, 249, 255)!important;}#my-svg .app&gt;*{fill:rgb(30, 41, 59)!important;stroke:rgb(100, 116, 139)!important;stroke-width:2px!important;color:rgb(248, 250, 252)!important;}#my-svg .app span{fill:rgb(30, 41, 59)!important;stroke:rgb(100, 116, 139)!important;stroke-width:2px!important;color:rgb(248, 250, 252)!important;}#my-svg .app tspan{fill:rgb(248, 250, 252)!important;}#my-svg .ext&gt;*{fill:rgb(133, 77, 14)!important;stroke:rgb(250, 204, 21)!important;stroke-width:2px!important;color:rgb(254, 252, 232)!important;}#my-svg .ext span{fill:rgb(133, 77, 14)!important;stroke:rgb(250, 204, 21)!important;stroke-width:2px!important;color:rgb(254, 252, 232)!important;}#my-svg .ext tspan{fill:rgb(254, 252, 232)!important;}</style><g><marker id="my-svg_flowchart-v2-pointEnd" class="marker flowchart-v2" viewBox="0 0 10 10" refX="5" refY="5" markerUnits="userSpaceOnUse" markerWidth="8" markerHeight="8" orient="auto"><path d="M 0 0 L 10 5 L 0 10 z" class="arrowMarkerPath" style="stroke-width: 1; stroke-dasharray: 1, 0;"/></marker><marker id="my-svg_flowchart-v2-pointStart" class="marker flowchart-v2" viewBox="0 0 10 10" refX="4.5" refY="5" markerUnits="userSpaceOnUse" markerWidth="8" markerHeight="8" orient="auto"><path d="M 0 5 L 10 10 L 10 0 z" class="arrowMarkerPath" style="stroke-width: 1; stroke-dasharray: 1, 0;"/></marker><marker id="my-svg_flowchart-v2-pointEnd-margin" class="marker flowchart-v2" viewBox="0 0 11.5 14" refX="11.5" refY="7" markerUnits="userSpaceOnUse" markerWidth="10.5" markerHeight="14" orient="auto"><path d="M 0 0 L 11.5 7 L 0 14 z" class="arrowMarkerPath" style="stroke-width: 0; stroke-dasharray: 1, 0;"/></marker><marker id="my-svg_flowchart-v2-pointStart-margin" class="marker flowchart-v2" viewBox="0 0 11.5 14" refX="1" refY="7" markerUnits="userSpaceOnUse" markerWidth="11.5" markerHeight="14" orient="auto"><polygon points="0,7 11.5,14 11.5,0" class="arrowMarkerPath" style="stroke-width: 0; stroke-dasharray: 1, 0;"/></marker><marker id="my-svg_flowchart-v2-circleEnd" class="marker flowchart-v2" viewBox="0 0 10 10" refX="11" refY="5" markerUnits="userSpaceOnUse" markerWidth="11" markerHeight="11" orient="auto"><circle cx="5" cy="5" r="5" class="arrowMarkerPath" style="stroke-width: 1; stroke-dasharray: 1, 0;"/></marker><marker id="my-svg_flowchart-v2-circleStart" class="marker flowchart-v2" viewBox="0 0 10 10" refX="-1" refY="5" markerUnits="userSpaceOnUse" markerWidth="11" markerHeight="11" orient="auto"><circle cx="5" cy="5" r="5" class="arrowMarkerPath" style="stroke-width: 1; stroke-dasharray: 1, 0;"/></marker><marker id="my-svg_flowchart-v2-circleEnd-margin" class="marker flowchart-v2" viewBox="0 0 10 10" refY="5" refX="12.25" markerUnits="userSpaceOnUse" markerWidth="14" markerHeight="14" orient="auto"><circle cx="5" cy="5" r="5" class="arrowMarkerPath" style="stroke-width: 0; stroke-dasharray: 1, 0;"/></marker><marker id="my-svg_flowchart-v2-circleStart-margin" class="marker flowchart-v2" viewBox="0 0 10 10" refX="-2" refY="5" markerUnits="userSpaceOnUse" markerWidth="14" markerHeight="14" orient="auto"><circle cx="5" cy="5" r="5" class="arrowMarkerPath" style="stroke-width: 0; stroke-dasharray: 1, 0;"/></marker><marker id="my-svg_flowchart-v2-crossEnd" class="marker cross flowchart-v2" viewBox="0 0 11 11" refX="12" refY="5.2" markerUnits="userSpaceOnUse" markerWidth="11" markerHeight="11" orient="auto"><path d="M 1,1 l 9,9 M 10,1 l -9,9" class="arrowMarkerPath" style="stroke-width: 2; stroke-dasharray: 1, 0;"/></marker><marker id="my-svg_flowchart-v2-crossStart" class="marker cross flowchart-v2" viewBox="0 0 11 11" refX="-1" refY="5.2" markerUnits="userSpaceOnUse" markerWidth="11" markerHeight="11" orient="auto"><path d="M 1,1 l 9,9 M 10,1 l -9,9" class="arrowMarkerPath" style="stroke-width: 2; stroke-dasharray: 1, 0;"/></marker><marker id="my-svg_flowchart-v2-crossEnd-margin" class="marker cross flowchart-v2" viewBox="0 0 15 15" refX="17.7" refY="7.5" markerUnits="userSpaceOnUse" markerWidth="12" markerHeight="12" orient="auto"><path d="M 1,1 L 14,14 M 1,14 L 14,1" class="arrowMarkerPath" style="stroke-width: 2.5;"/></marker><marker id="my-svg_flowchart-v2-crossStart-margin" class="marker cross flowchart-v2" viewBox="0 0 15 15" refX="-3.5" refY="7.5" markerUnits="userSpaceOnUse" markerWidth="12" markerHeight="12" orient="auto"><path d="M 1,1 L 14,14 M 1,14 L 14,1" class="arrowMarkerPath" style="stroke-width: 2.5; stroke-dasharray: 1, 0;"/></marker><g class="root"><g class="clusters"><g class="cluster app" id="my-svg-App" data-look="classic"><rect style="fill:#1E293B !important;stroke:#64748B !important;stroke-width:2px !important" x="8" y="249" width="466.90234375" height="416"/><g class="cluster-label" transform="translate(168.849609375, 249)"><foreignObject width="145.203125" height="24"><div xmlns="http://www.w3.org/1999/xhtml" style="display: table-cell; white-space: nowrap; line-height: 1.5;"><span class="nodeLabel" style="color:#F8FAFC !important"><p>Application Sandbox</p></span></div></foreignObject></g></g></g><g class="edgePaths"><path d="M237.74,47.5L233.181,53.583C228.621,59.667,219.502,71.833,218.534,83.522C217.567,95.211,224.751,106.421,228.343,112.027L231.935,117.632" id="my-svg-L_User_Model_0" class="edge-thickness-normal edge-pattern-solid edge-thickness-normal edge-pattern-solid flowchart-link" style=";" data-edge="true" data-et="edge" data-id="L_User_Model_0" data-points="W3sieCI6MjM3Ljc0MDA0NDI0Nzc4NzYsInkiOjQ3LjV9LHsieCI6MjEwLjM4MjgxMjUsInkiOjg0fSx7IngiOjIzNC4wOTI3MTI0MDIzNDM3NSwieSI6MTIxfV0=" data-look="classic" marker-end="url(#my-svg_flowchart-v2-pointEnd)"/><path d="M140.734,328L140.734,332.167C140.734,336.333,140.734,344.667,140.734,352.333C140.734,360,140.734,367,140.734,370.5L140.734,374" id="my-svg-L_Schema_Business_0" class="edge-thickness-normal edge-pattern-solid edge-thickness-normal edge-pattern-solid flowchart-link" style=";" data-edge="true" data-et="edge" data-id="L_Schema_Business_0" data-points="W3sieCI6MTQwLjczNDM3NSwieSI6MzI4fSx7IngiOjE0MC43MzQzNzUsInkiOjM1M30seyJ4IjoxNDAuNzM0Mzc1LCJ5IjozNzh9XQ==" data-look="classic" marker-end="url(#my-svg_flowchart-v2-pointEnd)"/><path d="M140.734,432L140.734,436.167C140.734,440.333,140.734,448.667,140.734,456.333C140.734,464,140.734,471,140.734,474.5L140.734,478" id="my-svg-L_Business_Auth_0" class="edge-thickness-normal edge-pattern-solid edge-thickness-normal edge-pattern-solid flowchart-link" style=";" data-edge="true" data-et="edge" data-id="L_Business_Auth_0" data-points="W3sieCI6MTQwLjczNDM3NSwieSI6NDMyfSx7IngiOjE0MC43MzQzNzUsInkiOjQ1N30seyJ4IjoxNDAuNzM0Mzc1LCJ5Ijo0ODJ9XQ==" data-look="classic" marker-end="url(#my-svg_flowchart-v2-pointEnd)"/><path d="M140.734,536L140.734,540.167C140.734,544.333,140.734,552.667,148.998,560.716C157.262,568.766,173.789,576.533,182.053,580.416L190.316,584.299" id="my-svg-L_Auth_Exec_0" class="edge-thickness-normal edge-pattern-solid edge-thickness-normal edge-pattern-solid flowchart-link" style=";" data-edge="true" data-et="edge" data-id="L_Auth_Exec_0" data-points="W3sieCI6MTQwLjczNDM3NSwieSI6NTM2fSx7IngiOjE0MC43MzQzNzUsInkiOjU2MX0seyJ4IjoxOTMuOTM2MzczMTk3MTE1NCwieSI6NTg2fV0=" data-look="classic" marker-end="url(#my-svg_flowchart-v2-pointEnd)"/><path d="M169.861,640L157.279,644.167C144.696,648.333,119.532,656.667,106.95,667C94.367,677.333,94.367,689.667,108.88,701.748C123.393,713.83,152.419,725.66,166.932,731.575L181.444,737.49" id="my-svg-L_Exec_External_0" class="edge-thickness-normal edge-pattern-solid edge-thickness-normal edge-pattern-solid flowchart-link" style=";" data-edge="true" data-et="edge" data-id="L_Exec_External_0" data-points="W3sieCI6MTY5Ljg2MTEwMjc2NDQyMzEsInkiOjY0MH0seyJ4Ijo5NC4zNjcxODc1LCJ5Ijo2NjV9LHsieCI6OTQuMzY3MTg3NSwieSI6NzAyfSx7IngiOjE4NS4xNDg2MjA2MDU0Njg3NSwieSI6NzM5fV0=" data-look="classic" marker-end="url(#my-svg_flowchart-v2-pointEnd)"/><path d="M316.765,739L331.696,732.833C346.626,726.667,376.487,714.333,391.417,702C406.348,689.667,406.348,677.333,394.564,667.212C382.779,657.091,359.211,649.182,347.427,645.227L335.643,641.273" id="my-svg-L_External_Exec_0" class="edge-thickness-normal edge-pattern-solid edge-thickness-normal edge-pattern-solid flowchart-link" style=";" data-edge="true" data-et="edge" data-id="L_External_Exec_0" data-points="W3sieCI6MzE2Ljc2NTM4MDg1OTM3NSwieSI6NzM5fSx7IngiOjQwNi4zNDc2NTYyNSwieSI6NzAyfSx7IngiOjQwNi4zNDc2NTYyNSwieSI6NjY1fSx7IngiOjMzMS44NTA5NjE1Mzg0NjE1NSwieSI6NjQwfV0=" data-look="classic" marker-end="url(#my-svg_flowchart-v2-pointEnd)"/><path d="M308.853,586L317.72,581.833C326.587,577.667,344.321,569.333,353.188,556.5C362.055,543.667,362.055,526.333,362.055,509C362.055,491.667,362.055,474.333,362.055,457C362.055,439.667,362.055,422.333,362.055,405C362.055,387.667,362.055,370.333,362.055,353C362.055,335.667,362.055,318.333,362.055,301C362.055,283.667,362.055,266.333,362.055,251.5C362.055,236.667,362.055,224.333,351.485,212.054C340.916,199.774,319.777,187.549,309.208,181.436L298.638,175.323" id="my-svg-L_Exec_Model_0" class="edge-thickness-normal edge-pattern-solid edge-thickness-normal edge-pattern-solid flowchart-link" style=";" data-edge="true" data-et="edge" data-id="L_Exec_Model_0" data-points="W3sieCI6MzA4Ljg1MjY4OTMwMjg4NDY0LCJ5Ijo1ODZ9LHsieCI6MzYyLjA1NDY4NzUsInkiOjU2MX0seyJ4IjozNjIuMDU0Njg3NSwieSI6NTA5fSx7IngiOjM2Mi4wNTQ2ODc1LCJ5Ijo0NTd9LHsieCI6MzYyLjA1NDY4NzUsInkiOjQwNX0seyJ4IjozNjIuMDU0Njg3NSwieSI6MzUzfSx7IngiOjM2Mi4wNTQ2ODc1LCJ5IjozMDF9LHsieCI6MzYyLjA1NDY4NzUsInkiOjI0OX0seyJ4IjozNjIuMDU0Njg3NSwieSI6MjEyfSx7IngiOjI5NS4xNzU3ODEyNSwieSI6MTczLjMyMDc2NjcwNTQ5NjE0fV0=" data-look="classic" marker-end="url(#my-svg_flowchart-v2-pointEnd)"/><path d="M268.696,121L272.648,114.833C276.6,108.667,284.503,96.333,284.452,84.624C284.401,72.914,276.396,61.829,272.393,56.286L268.391,50.743" id="my-svg-L_Model_User_0" class="edge-thickness-normal edge-pattern-solid edge-thickness-normal edge-pattern-solid flowchart-link" style=";" data-edge="true" data-et="edge" data-id="L_Model_User_0" data-points="W3sieCI6MjY4LjY5NjM1MDA5NzY1NjI1LCJ5IjoxMjF9LHsieCI6MjkyLjQwNjI1LCJ5Ijo4NH0seyJ4IjoyNjYuMDQ5MDE4MjUyMjEyMzYsInkiOjQ3LjV9XQ==" data-look="classic" marker-end="url(#my-svg_flowchart-v2-pointEnd)"/><path d="M207.613,173.321L196.467,179.767C185.32,186.214,163.027,199.107,151.881,211.053C140.734,223,140.734,234,140.734,239.5L140.734,245" id="my-svg-L_Model_App_0" class="edge-thickness-normal edge-pattern-solid edge-thickness-normal edge-pattern-solid flowchart-link" style=";" data-edge="true" data-et="edge" data-id="L_Model_App_0" data-points="W3sieCI6MjA3LjYxMzI4MTI1LCJ5IjoxNzMuMzIwNzY2NzA1NDk2MTR9LHsieCI6MTQwLjczNDM3NSwieSI6MjEyfSx7IngiOjE0MC43MzQzNzUsInkiOjI0OX0seyJ4IjoxNDAuNzM0Mzc1LCJ5IjoyNzR9XQ==" data-look="classic" marker-end="url(#my-svg_flowchart-v2-pointEnd)"/></g><g class="edgeLabels"><g class="edgeLabel"><g class="label" data-id="L_User_Model_0" transform="translate(0, 0)"><foreignObject width="0" height="0"><div xmlns="http://www.w3.org/1999/xhtml" class="labelBkg" style="display: table-cell; white-space: nowrap; line-height: 1.5; max-width: 200px; text-align: center;"><span class="edgeLabel"></span></div></foreignObject></g></g><g class="edgeLabel"><g class="label" data-id="L_Schema_Business_0" transform="translate(0, 0)"><foreignObject width="0" height="0"><div xmlns="http://www.w3.org/1999/xhtml" class="labelBkg" style="display: table-cell; white-space: nowrap; line-height: 1.5; max-width: 200px; text-align: center;"><span class="edgeLabel"></span></div></foreignObject></g></g><g class="edgeLabel"><g class="label" data-id="L_Business_Auth_0" transform="translate(0, 0)"><foreignObject width="0" height="0"><div xmlns="http://www.w3.org/1999/xhtml" class="labelBkg" style="display: table-cell; white-space: nowrap; line-height: 1.5; max-width: 200px; text-align: center;"><span class="edgeLabel"></span></div></foreignObject></g></g><g class="edgeLabel"><g class="label" data-id="L_Auth_Exec_0" transform="translate(0, 0)"><foreignObject width="0" height="0"><div xmlns="http://www.w3.org/1999/xhtml" class="labelBkg" style="display: table-cell; white-space: nowrap; line-height: 1.5; max-width: 200px; text-align: center;"><span class="edgeLabel"></span></div></foreignObject></g></g><g class="edgeLabel" transform="translate(94.3671875, 702)"><g class="label" data-id="L_Exec_External_0" transform="translate(-36.625, -12)"><foreignObject width="73.25" height="24"><div xmlns="http://www.w3.org/1999/xhtml" class="labelBkg" style="display: table-cell; white-space: nowrap; line-height: 1.5; max-width: 200px; text-align: center;"><span class="edgeLabel"><p>2. API Call</p></span></div></foreignObject></g></g><g class="edgeLabel" transform="translate(406.34765625, 702)"><g class="label" data-id="L_External_Exec_0" transform="translate(-26.03125, -12)"><foreignObject width="52.0625" height="24"><div xmlns="http://www.w3.org/1999/xhtml" class="labelBkg" style="display: table-cell; white-space: nowrap; line-height: 1.5; max-width: 200px; text-align: center;"><span class="edgeLabel"><p>3. Data</p></span></div></foreignObject></g></g><g class="edgeLabel" transform="translate(362.0546875, 405)"><g class="label" data-id="L_Exec_Model_0" transform="translate(-88.5859375, -12)"><foreignObject width="177.171875" height="24"><div xmlns="http://www.w3.org/1999/xhtml" class="labelBkg" style="display: table-cell; white-space: nowrap; line-height: 1.5; max-width: 200px; text-align: center;"><span class="edgeLabel"><p>4. Structured Tool Result</p></span></div></foreignObject></g></g><g class="edgeLabel" transform="translate(292.40625, 84)"><g class="label" data-id="L_Model_User_0" transform="translate(-62.0234375, -12)"><foreignObject width="124.046875" height="24"><div xmlns="http://www.w3.org/1999/xhtml" class="labelBkg" style="display: table-cell; white-space: nowrap; line-height: 1.5; max-width: 200px; text-align: center;"><span class="edgeLabel"><p>5. Final Response</p></span></div></foreignObject></g></g><g class="edgeLabel" transform="translate(158.15928, 201.92236)"><g class="label" data-id="L_Model_App_0" transform="translate(-82.8828125, -12)"><foreignObject width="165.765625" height="24"><div xmlns="http://www.w3.org/1999/xhtml" class="labelBkg" style="display: table-cell; white-space: nowrap; line-height: 1.5; max-width: 200px; text-align: center;"><span class="edgeLabel"><p>1. Tool Proposal (JSON)</p></span></div></foreignObject></g></g></g><g class="nodes"><g class="node default" id="my-svg-flowchart-User-0" data-look="classic" transform="translate(251.39453125, 27.5)"><g class="basic label-container outer-path"><path d="M-39.484375 -19.5 C-12.868566888243674 -19.5, 13.747241223512653 -19.5, 39.484375 -19.5 C39.484375 -19.5, 39.484375 -19.5, 39.484375 -19.5 C39.978640415088165 -19.48414987016739, 40.47290583017633 -19.468299740334782, 40.7337442896239 -19.45993515863156 C41.138922574583354 -19.420848096779704, 41.54410085954281 -19.381761034927845, 41.977979652847864 -19.3399052695533 C42.27002959671171 -19.292688899510534, 42.56207954057555 -19.24547252946777, 43.21196825967676 -19.140403561325776 C43.65648403824571 -19.038945735603956, 44.100999816814664 -18.937487909882137, 44.43063938623539 -18.862249829261074 C44.88777079978689 -18.726575625250746, 45.34490221333839 -18.590901421240417, 45.628985251460605 -18.50658706670804 C46.0475265973414 -18.352559982470115, 46.46606794322221 -18.19853289823219, 46.8020815951478 -18.074876768247425 C47.19765246263266 -17.89976927940474, 47.59322333011753 -17.724661790562056, 47.94510791279238 -17.568892924097174 C48.29496351842341 -17.38637347873268, 48.64481912405443 -17.203854033368184, 49.05336726407678 -16.990714730406097 C49.388023931119164 -16.787843892184135, 49.72268059816154 -16.584973053962173, 50.1223055736057 -16.342718045390892 C50.43713355095687 -16.1231076770742, 50.751961528308044 -15.903497308757505, 51.14753034457871 -15.627565626425154 C51.48016751844702 -15.362296332112129, 51.812804692315325 -15.097027037799105, 52.124828708501866 -14.848196188198123 C52.43172407661155 -14.569481934887385, 52.738619444721245 -14.290767681576645, 53.05018473676799 -14.007812326905688 C53.3521941332789 -13.695962829575583, 53.65420352978981 -13.38411333224548, 53.91979594296865 -13.10986736009568 C54.148129357285306 -12.841653939099997, 54.376462771601965 -12.573440518104315, 54.73008890812658 -12.158051136245305 C54.99358199778171 -11.804994400821721, 55.25707508743684 -11.451937665398138, 55.477733964640635 -11.156274872382312 C55.61886139002969 -10.939465248964776, 55.75998881541876 -10.72265562554724, 56.15965887860425 -10.108655082055241 C56.34245673014572 -9.784078986353705, 56.52525458168719 -9.45950289065217, 56.773061474273504 -9.019496659696287 C56.88596376888339 -8.785052629216738, 56.99886606349328 -8.55060859873719, 57.31542114880834 -7.893275190886684 C57.46878266162422 -7.514469289188334, 57.62214417444009 -7.135663387489984, 57.784509229970325 -6.734618561215508 C57.90569657375855 -6.369621590306453, 58.026883917546776 -6.004624619397399, 58.17839813421488 -5.548287939305138 C58.27219685391174 -5.190592768478742, 58.3659955736086 -4.832897597652346, 58.49546928754556 -4.339158212148133 C58.56339301147992 -3.9903842454293503, 58.63131673541427 -3.641610278710568, 58.734419776581774 -3.1121979531509023 C58.78600205388171 -2.7121359964853955, 58.837584331181645 -2.3120740398198887, 58.89426770250937 -1.872449005199798 C58.919234846743265 -1.4835655806407135, 58.94420199097717 -1.094682156081629, 58.97435621591342 -0.6250057626472757 C58.97435621591342 -0.2919232305800642, 58.97435621591342 0.041159301487147304, 58.97435621591342 0.625005762647271 C58.9566993526906 0.900025659706137, 58.93904248946778 1.1750455567650029, 58.89426770250937 1.8724490051997846 C58.84503573580285 2.2542824170240725, 58.79580376909633 2.63611582884836, 58.734419776581774 3.1121979531508885 C58.645137080079046 3.5706457297878087, 58.555854383576325 4.029093506424729, 58.49546928754556 4.339158212148129 C58.40063568428196 4.70079984253589, 58.305802081018356 5.062441472923651, 58.17839813421489 5.548287939305125 C58.096353857020965 5.795392230232851, 58.01430957982704 6.042496521160577, 57.784509229970325 6.734618561215495 C57.615893039791644 7.151103810929108, 57.44727684961296 7.56758906064272, 57.31542114880834 7.893275190886679 C57.18589865368284 8.162231423352223, 57.056376158557335 8.431187655817768, 56.773061474273504 9.019496659696284 C56.52853511199008 9.45367797690967, 56.28400874970666 9.887859294123055, 56.15965887860425 10.108655082055236 C55.926303437386515 10.467151704475532, 55.692947996168776 10.825648326895825, 55.47773396464064 11.156274872382301 C55.21781700034408 11.504539925617134, 54.957900036047505 11.852804978851967, 54.73008890812658 12.158051136245302 C54.499789068667035 12.428574432106581, 54.269489229207494 12.699097727967862, 53.91979594296866 13.10986736009567 C53.73716684784131 13.298446894942225, 53.554537752713955 13.48702642978878, 53.05018473676799 14.007812326905684 C52.75991932752286 14.271423691580233, 52.46965391827773 14.535035056254783, 52.12482870850189 14.848196188198111 C51.875965941983516 15.046657621980168, 51.62710317546514 15.245119055762228, 51.14753034457871 15.627565626425152 C50.82320780780346 15.853798988383229, 50.498885271028215 16.080032350341305, 50.12230557360571 16.34271804539089 C49.89344012169662 16.48145762730086, 49.664574669787534 16.62019720921083, 49.05336726407678 16.990714730406093 C48.764035675938075 17.141658834612333, 48.47470408779936 17.292602938818572, 47.94510791279239 17.56889292409717 C47.5073689583598 17.762666974159757, 47.0696300039272 17.95644102422234, 46.802081595147804 18.07487676824742 C46.46587528684018 18.19860379756167, 46.12966897853256 18.32233082687592, 45.62898525146062 18.506587066708033 C45.21665374526285 18.62896489337529, 44.80432223906508 18.751342720042544, 44.43063938623541 18.86224982926107 C44.08104981130861 18.94204136845294, 43.73146023638181 19.021832907644807, 43.211968259676766 19.140403561325773 C42.87767577365897 19.19444937798818, 42.54338328764117 19.24849519465059, 41.97797965284788 19.3399052695533 C41.51975537512578 19.384109614529827, 41.06153109740369 19.428313959506355, 40.7337442896239 19.45993515863156 C40.28920303974531 19.474190731268113, 39.84466178986672 19.48844630390467, 39.48437500000001 19.5 C39.48437500000001 19.5, 39.484375 19.5, 39.484375 19.5 C15.205132635270672 19.5, -9.074109729458655 19.5, -39.48437499999999 19.5 C-39.955377302609065 19.484895872905692, -40.42637960521814 19.46979174581139, -40.73374428962389 19.45993515863156 C-41.076917999746065 19.426829603542842, -41.42009170986824 19.39372404845413, -41.97797965284787 19.3399052695533 C-42.23135434830257 19.298941613742294, -42.48472904375727 19.257977957931285, -43.21196825967676 19.140403561325773 C-43.53003054541243 19.06780792015699, -43.8480928311481 18.99521227898821, -44.430639386235384 18.862249829261074 C-44.70321799839693 18.78134992796586, -44.975796610558476 18.700450026670648, -45.62898525146059 18.506587066708043 C-46.03574671851528 18.356895086770137, -46.44250818556996 18.207203106832228, -46.8020815951478 18.074876768247425 C-47.19238815397139 17.902099632688916, -47.58269471279499 17.72932249713041, -47.94510791279238 17.568892924097174 C-48.317158329943645 17.374794459779025, -48.68920874709491 17.180695995460876, -49.05336726407678 16.990714730406097 C-49.41526704357947 16.7713289573124, -49.777166823082155 16.551943184218697, -50.122305573605686 16.3427180453909 C-50.51023536909182 16.072115013269958, -50.89816516457796 15.801511981149018, -51.14753034457871 15.627565626425156 C-51.52084115737331 15.329860187439403, -51.894151970167904 15.03215474845365, -52.124828708501866 14.848196188198125 C-52.43356234897724 14.567812464562891, -52.742295989452614 14.287428740927657, -53.050184736767974 14.007812326905697 C-53.35876609526244 13.68917673925946, -53.66734745375691 13.370541151613226, -53.919795942968655 13.109867360095677 C-54.23304397096758 12.741908402090408, -54.546291998966495 12.373949444085138, -54.730088908126575 12.158051136245307 C-54.90369181625902 11.925439054898117, -55.07729472439147 11.692826973550927, -55.477733964640635 11.156274872382316 C-55.703670065332396 10.809176349381806, -55.92960616602416 10.462077826381297, -56.15965887860425 10.108655082055249 C-56.33334450816132 9.800258659199546, -56.50703013771839 9.491862236343845, -56.773061474273504 9.019496659696289 C-56.978988155508226 8.591885499987255, -57.18491483674295 8.164274340278219, -57.31542114880834 7.893275190886686 C-57.42164951332719 7.630889076739425, -57.52787787784603 7.368502962592165, -57.784509229970325 6.73461856121551 C-57.886702648128974 6.42682826803167, -57.988896066287616 6.11903797484783, -58.17839813421488 5.5482879393051325 C-58.25787090759847 5.245223810675635, -58.337343680982066 4.942159682046138, -58.49546928754556 4.339158212148136 C-58.56224933085335 3.996256803729801, -58.629029374161135 3.6533553953114666, -58.734419776581774 3.112197953150904 C-58.768430943815815 2.848414056348339, -58.80244211104985 2.5846301595457737, -58.89426770250937 1.872449005199809 C-58.914365387010854 1.559411346530199, -58.93446307151234 1.246373687860589, -58.97435621591342 0.6250057626472781 C-58.97435621591342 0.18477261207130397, -58.97435621591342 -0.2554605385046702, -58.97435621591342 -0.6250057626472687 C-58.95776441122664 -0.8834365133075281, -58.94117260653986 -1.1418672639677876, -58.89426770250937 -1.8724490051997822 C-58.84042688654318 -2.2900277417618407, -58.786586070576995 -2.707606478323899, -58.734419776581774 -3.112197953150895 C-58.68266462381371 -3.3779497241594956, -58.63090947104565 -3.643701495168096, -58.49546928754556 -4.339158212148126 C-58.40891961242155 -4.669209634262467, -58.32236993729754 -4.999261056376808, -58.17839813421489 -5.548287939305123 C-58.02693836051563 -6.004460645849509, -57.87547858681638 -6.460633352393894, -57.78450922997033 -6.734618561215485 C-57.60136070365203 -7.186998962157565, -57.41821217733372 -7.639379363099645, -57.31542114880834 -7.893275190886676 C-57.11631355501028 -8.306726369628391, -56.91720596121221 -8.720177548370108, -56.773061474273504 -9.019496659696282 C-56.605755202174834 -9.316565887404607, -56.43844893007616 -9.613635115112933, -56.15965887860425 -10.108655082055243 C-55.977181612028176 -10.388989165523094, -55.794704345452104 -10.669323248990946, -55.47773396464064 -11.156274872382308 C-55.221511188089195 -11.499590050586104, -54.96528841153775 -11.8429052287899, -54.73008890812659 -12.158051136245302 C-54.46747391833352 -12.466533646472488, -54.20485892854044 -12.775016156699674, -53.91979594296866 -13.10986736009567 C-53.58912441111751 -13.451312865369646, -53.25845287926636 -13.792758370643623, -53.050184736767996 -14.007812326905677 C-52.73230854677937 -14.296499072110242, -52.41443235679075 -14.585185817314805, -52.12482870850189 -14.848196188198107 C-51.75586517405797 -15.142434788385128, -51.38690163961406 -15.436673388572148, -51.14753034457872 -15.627565626425149 C-50.8834909921318 -15.811748048612776, -50.619451639684875 -15.995930470800403, -50.122305573605715 -16.342718045390885 C-49.78610853383611 -16.54652266661233, -49.44991149406649 -16.750327287833773, -49.05336726407679 -16.99071473040609 C-48.71006276341349 -17.169816468505104, -48.366758262750196 -17.34891820660412, -47.94510791279239 -17.56889292409717 C-47.62690239537109 -17.70975306742828, -47.308696877949785 -17.850613210759395, -46.802081595147804 -18.07487676824742 C-46.372494842797586 -18.23296866416871, -45.94290809044737 -18.391060560089997, -45.62898525146062 -18.506587066708033 C-45.18854810489171 -18.637306499907925, -44.74811095832279 -18.768025933107822, -44.43063938623541 -18.862249829261067 C-44.10912069391076 -18.935634372678624, -43.78760200158611 -19.00901891609618, -43.211968259676766 -19.140403561325773 C-42.899686838326325 -19.19089079975112, -42.587405416975884 -19.241378038176467, -41.97797965284788 -19.3399052695533 C-41.60480201860703 -19.375905267116746, -41.231624384366185 -19.41190526468019, -40.7337442896239 -19.45993515863156 C-40.438932983575505 -19.469389183401134, -40.14412167752711 -19.478843208170712, -39.48437500000001 -19.5 C-39.48437500000001 -19.5, -39.484375 -19.5, -39.484375 -19.5" stroke="none" stroke-width="0" fill="#ECECFF" style=""/><path d="M-39.484375 -19.5 C-19.481249136518027 -19.5, 0.5218767269639457 -19.5, 39.484375 -19.5 M-39.484375 -19.5 C-16.01917651584511 -19.5, 7.446021968309779 -19.5, 39.484375 -19.5 M39.484375 -19.5 C39.484375 -19.5, 39.484375 -19.5, 39.484375 -19.5 M39.484375 -19.5 C39.484375 -19.5, 39.484375 -19.5, 39.484375 -19.5 M39.484375 -19.5 C39.75515550013514 -19.491316596402935, 40.02593600027028 -19.48263319280587, 40.7337442896239 -19.45993515863156 M39.484375 -19.5 C39.82230050247142 -19.48916338686783, 40.160226004942835 -19.47832677373566, 40.7337442896239 -19.45993515863156 M40.7337442896239 -19.45993515863156 C41.17689890965161 -19.417184565408892, 41.62005352967932 -19.374433972186225, 41.977979652847864 -19.3399052695533 M40.7337442896239 -19.45993515863156 C41.04179135299337 -19.4302182289091, 41.349838416362836 -19.400501299186647, 41.977979652847864 -19.3399052695533 M41.977979652847864 -19.3399052695533 C42.25232760990374 -19.29555081945669, 42.52667556695961 -19.251196369360077, 43.21196825967676 -19.140403561325776 M41.977979652847864 -19.3399052695533 C42.270433054919124 -19.292623671516424, 42.562886456990384 -19.24534207347955, 43.21196825967676 -19.140403561325776 M43.21196825967676 -19.140403561325776 C43.515160235496374 -19.071201971357493, 43.81835221131599 -19.00200038138921, 44.43063938623539 -18.862249829261074 M43.21196825967676 -19.140403561325776 C43.62425871090308 -19.04630095628, 44.0365491621294 -18.95219835123422, 44.43063938623539 -18.862249829261074 M44.43063938623539 -18.862249829261074 C44.7886484456637 -18.755994619650654, 45.14665750509202 -18.64973941004023, 45.628985251460605 -18.50658706670804 M44.43063938623539 -18.862249829261074 C44.89885642652202 -18.7232854694254, 45.36707346680866 -18.584321109589723, 45.628985251460605 -18.50658706670804 M45.628985251460605 -18.50658706670804 C45.87640600908835 -18.41553394076862, 46.12382676671609 -18.324480814829197, 46.8020815951478 -18.074876768247425 M45.628985251460605 -18.50658706670804 C45.92458262944162 -18.397804499138818, 46.220180007422634 -18.289021931569597, 46.8020815951478 -18.074876768247425 M46.8020815951478 -18.074876768247425 C47.03200659932354 -17.97309578938174, 47.26193160349928 -17.871314810516058, 47.94510791279238 -17.568892924097174 M46.8020815951478 -18.074876768247425 C47.07001935615131 -17.956268669542453, 47.33795711715483 -17.83766057083748, 47.94510791279238 -17.568892924097174 M47.94510791279238 -17.568892924097174 C48.2492170940891 -17.410239359005903, 48.553326275385814 -17.251585793914636, 49.05336726407678 -16.990714730406097 M47.94510791279238 -17.568892924097174 C48.246525873339245 -17.411643367147295, 48.54794383388611 -17.254393810197413, 49.05336726407678 -16.990714730406097 M49.05336726407678 -16.990714730406097 C49.275672099797525 -16.85595223258396, 49.49797693551827 -16.721189734761822, 50.1223055736057 -16.342718045390892 M49.05336726407678 -16.990714730406097 C49.36772028096798 -16.800152084223274, 49.68207329785918 -16.609589438040448, 50.1223055736057 -16.342718045390892 M50.1223055736057 -16.342718045390892 C50.492388492253056 -16.084564221973835, 50.86247141090042 -15.82641039855678, 51.14753034457871 -15.627565626425154 M50.1223055736057 -16.342718045390892 C50.52699853058113 -16.060421757480583, 50.93169148755656 -15.778125469570274, 51.14753034457871 -15.627565626425154 M51.14753034457871 -15.627565626425154 C51.392921294219946 -15.431872874213688, 51.63831224386118 -15.23618012200222, 52.124828708501866 -14.848196188198123 M51.14753034457871 -15.627565626425154 C51.40879548409269 -15.419213630220105, 51.67006062360667 -15.210861634015057, 52.124828708501866 -14.848196188198123 M52.124828708501866 -14.848196188198123 C52.45934843968082 -14.544394219248476, 52.79386817085977 -14.240592250298828, 53.05018473676799 -14.007812326905688 M52.124828708501866 -14.848196188198123 C52.33027470908429 -14.661615566272467, 52.53572070966673 -14.475034944346808, 53.05018473676799 -14.007812326905688 M53.05018473676799 -14.007812326905688 C53.33299473169455 -13.715787788011612, 53.61580472662111 -13.423763249117535, 53.91979594296865 -13.10986736009568 M53.05018473676799 -14.007812326905688 C53.301736247547716 -13.748064739262494, 53.55328775832744 -13.488317151619299, 53.91979594296865 -13.10986736009568 M53.91979594296865 -13.10986736009568 C54.11731387941626 -12.877851552855345, 54.31483181586387 -12.64583574561501, 54.73008890812658 -12.158051136245305 M53.91979594296865 -13.10986736009568 C54.15344296296388 -12.835412275517216, 54.38708998295912 -12.560957190938751, 54.73008890812658 -12.158051136245305 M54.73008890812658 -12.158051136245305 C54.99329313937436 -11.805381444772033, 55.256497370622135 -11.452711753298763, 55.477733964640635 -11.156274872382312 M54.73008890812658 -12.158051136245305 C54.91699249276009 -11.90761736010325, 55.10389607739359 -11.657183583961197, 55.477733964640635 -11.156274872382312 M55.477733964640635 -11.156274872382312 C55.695521183633495 -10.821695219952442, 55.91330840262635 -10.487115567522572, 56.15965887860425 -10.108655082055241 M55.477733964640635 -11.156274872382312 C55.74549059416665 -10.744928786708, 56.01324722369266 -10.333582701033688, 56.15965887860425 -10.108655082055241 M56.15965887860425 -10.108655082055241 C56.34139373093901 -9.785966449085551, 56.52312858327378 -9.463277816115863, 56.773061474273504 -9.019496659696287 M56.15965887860425 -10.108655082055241 C56.31219679341248 -9.837808568174427, 56.46473470822072 -9.566962054293615, 56.773061474273504 -9.019496659696287 M56.773061474273504 -9.019496659696287 C56.94363502308495 -8.665297035900041, 57.1142085718964 -8.311097412103793, 57.31542114880834 -7.893275190886684 M56.773061474273504 -9.019496659696287 C56.955014866629746 -8.641666547289626, 57.13696825898599 -8.263836434882966, 57.31542114880834 -7.893275190886684 M57.31542114880834 -7.893275190886684 C57.43831914636927 -7.589714760840051, 57.5612171439302 -7.286154330793419, 57.784509229970325 -6.734618561215508 M57.31542114880834 -7.893275190886684 C57.482929322520455 -7.479526763267536, 57.65043749623257 -7.065778335648388, 57.784509229970325 -6.734618561215508 M57.784509229970325 -6.734618561215508 C57.87121244961169 -6.473482277937751, 57.957915669253055 -6.212345994659993, 58.17839813421488 -5.548287939305138 M57.784509229970325 -6.734618561215508 C57.9064723717819 -6.367285010266734, 58.028435513593486 -5.99995145931796, 58.17839813421488 -5.548287939305138 M58.17839813421488 -5.548287939305138 C58.279699820499324 -5.161980705074003, 58.38100150678376 -4.775673470842868, 58.49546928754556 -4.339158212148133 M58.17839813421488 -5.548287939305138 C58.28016143135156 -5.160220382831027, 58.38192472848823 -4.772152826356916, 58.49546928754556 -4.339158212148133 M58.49546928754556 -4.339158212148133 C58.569024844133835 -3.9614659750397245, 58.64258040072211 -3.583773737931316, 58.734419776581774 -3.1121979531509023 M58.49546928754556 -4.339158212148133 C58.5512795118307 -4.0525845059390235, 58.60708973611584 -3.766010799729915, 58.734419776581774 -3.1121979531509023 M58.734419776581774 -3.1121979531509023 C58.79779441371352 -2.6206767822947237, 58.86116905084526 -2.1291556114385455, 58.89426770250937 -1.872449005199798 M58.734419776581774 -3.1121979531509023 C58.78032324887496 -2.7561796867108574, 58.82622672116814 -2.4001614202708126, 58.89426770250937 -1.872449005199798 M58.89426770250937 -1.872449005199798 C58.920830860888024 -1.4587063720567461, 58.947394019266675 -1.0449637389136943, 58.97435621591342 -0.6250057626472757 M58.89426770250937 -1.872449005199798 C58.91635961211154 -1.5283496808774335, 58.93845152171372 -1.1842503565550693, 58.97435621591342 -0.6250057626472757 M58.97435621591342 -0.6250057626472757 C58.97435621591342 -0.3321562549377161, 58.97435621591342 -0.039306747228156524, 58.97435621591342 0.625005762647271 M58.97435621591342 -0.6250057626472757 C58.97435621591342 -0.1717237722190208, 58.97435621591342 0.2815582182092341, 58.97435621591342 0.625005762647271 M58.97435621591342 0.625005762647271 C58.955848174671175 0.9132834444172266, 58.937340133428926 1.2015611261871824, 58.89426770250937 1.8724490051997846 M58.97435621591342 0.625005762647271 C58.95019531709946 1.001331264001212, 58.9260344182855 1.377656765355153, 58.89426770250937 1.8724490051997846 M58.89426770250937 1.8724490051997846 C58.83443805452522 2.3364759402644633, 58.77460840654108 2.800502875329142, 58.734419776581774 3.1121979531508885 M58.89426770250937 1.8724490051997846 C58.84193816543758 2.2783065610926467, 58.78960862836579 2.684164116985509, 58.734419776581774 3.1121979531508885 M58.734419776581774 3.1121979531508885 C58.64247043989237 3.584338363551794, 58.55052110320297 4.0564787739526995, 58.49546928754556 4.339158212148129 M58.734419776581774 3.1121979531508885 C58.68357373865203 3.3732816116062114, 58.632727700722285 3.634365270061534, 58.49546928754556 4.339158212148129 M58.49546928754556 4.339158212148129 C58.390953703975356 4.737721429641777, 58.28643812040515 5.136284647135426, 58.17839813421489 5.548287939305125 M58.49546928754556 4.339158212148129 C58.40079822961546 4.700179986731664, 58.30612717168536 5.0612017613152, 58.17839813421489 5.548287939305125 M58.17839813421489 5.548287939305125 C58.09207616061165 5.808275970259346, 58.005754187008414 6.068264001213565, 57.784509229970325 6.734618561215495 M58.17839813421489 5.548287939305125 C58.06379799707368 5.893445293322225, 57.94919785993246 6.238602647339324, 57.784509229970325 6.734618561215495 M57.784509229970325 6.734618561215495 C57.604203092749835 7.17997820613212, 57.423896955529344 7.6253378510487435, 57.31542114880834 7.893275190886679 M57.784509229970325 6.734618561215495 C57.67353679642166 7.008722617586746, 57.56256436287299 7.282826673957996, 57.31542114880834 7.893275190886679 M57.31542114880834 7.893275190886679 C57.11350177944368 8.31256508175479, 56.91158241007902 8.731854972622902, 56.773061474273504 9.019496659696284 M57.31542114880834 7.893275190886679 C57.19354820839541 8.146346959317313, 57.071675267982485 8.399418727747948, 56.773061474273504 9.019496659696284 M56.773061474273504 9.019496659696284 C56.62809734357848 9.276895152955285, 56.48313321288346 9.534293646214287, 56.15965887860425 10.108655082055236 M56.773061474273504 9.019496659696284 C56.570636327323804 9.378923005874311, 56.3682111803741 9.738349352052337, 56.15965887860425 10.108655082055236 M56.15965887860425 10.108655082055236 C55.93414025609466 10.455112246459345, 55.70862163358507 10.801569410863454, 55.47773396464064 11.156274872382301 M56.15965887860425 10.108655082055236 C55.93251309033965 10.457612010014227, 55.70536730207505 10.806568937973216, 55.47773396464064 11.156274872382301 M55.47773396464064 11.156274872382301 C55.275671413161604 11.427020283087082, 55.073608861682565 11.69776569379186, 54.73008890812658 12.158051136245302 M55.47773396464064 11.156274872382301 C55.24317266806155 11.470565640824574, 55.008611371482445 11.784856409266846, 54.73008890812658 12.158051136245302 M54.73008890812658 12.158051136245302 C54.416328925522855 12.526611465260418, 54.10256894291913 12.895171794275536, 53.91979594296866 13.10986736009567 M54.73008890812658 12.158051136245302 C54.4765619799738 12.455858292144445, 54.22303505182102 12.753665448043586, 53.91979594296866 13.10986736009567 M53.91979594296866 13.10986736009567 C53.65881165706545 13.379355062499098, 53.39782737116224 13.648842764902525, 53.05018473676799 14.007812326905684 M53.91979594296866 13.10986736009567 C53.585146743474205 13.45542013378394, 53.250497543979755 13.800972907472211, 53.05018473676799 14.007812326905684 M53.05018473676799 14.007812326905684 C52.7066296108074 14.319820002332579, 52.3630744848468 14.631827677759473, 52.12482870850189 14.848196188198111 M53.05018473676799 14.007812326905684 C52.72547512561124 14.302705004412724, 52.40076551445449 14.597597681919764, 52.12482870850189 14.848196188198111 M52.12482870850189 14.848196188198111 C51.897866510368154 15.029192501492021, 51.67090431223441 15.21018881478593, 51.14753034457871 15.627565626425152 M52.12482870850189 14.848196188198111 C51.797873727633934 15.108934084802858, 51.47091874676598 15.369671981407604, 51.14753034457871 15.627565626425152 M51.14753034457871 15.627565626425152 C50.880905421447835 15.813551630794354, 50.614280498316965 15.999537635163556, 50.12230557360571 16.34271804539089 M51.14753034457871 15.627565626425152 C50.94215842362364 15.770824188076242, 50.736786502668565 15.914082749727333, 50.12230557360571 16.34271804539089 M50.12230557360571 16.34271804539089 C49.86536556300616 16.498476589763442, 49.6084255524066 16.654235134135995, 49.05336726407678 16.990714730406093 M50.12230557360571 16.34271804539089 C49.82387062682668 16.52363106392675, 49.52543568004766 16.704544082462608, 49.05336726407678 16.990714730406093 M49.05336726407678 16.990714730406093 C48.71624231936217 17.166592598124875, 48.37911737464756 17.342470465843654, 47.94510791279239 17.56889292409717 M49.05336726407678 16.990714730406093 C48.614074817078205 17.21989331862501, 48.174782370079626 17.449071906843926, 47.94510791279239 17.56889292409717 M47.94510791279239 17.56889292409717 C47.694631288657426 17.679771495476654, 47.444154664522465 17.79065006685614, 46.802081595147804 18.07487676824742 M47.94510791279239 17.56889292409717 C47.62372147015946 17.711161168660677, 47.30233502752653 17.85342941322418, 46.802081595147804 18.07487676824742 M46.802081595147804 18.07487676824742 C46.45310907992988 18.203301879714186, 46.10413656471195 18.33172699118095, 45.62898525146062 18.506587066708033 M46.802081595147804 18.07487676824742 C46.472589470760546 18.19613291581374, 46.14309734637328 18.317389063380062, 45.62898525146062 18.506587066708033 M45.62898525146062 18.506587066708033 C45.25280931508436 18.61823411003672, 44.876633378708114 18.72988115336541, 44.43063938623541 18.86224982926107 M45.62898525146062 18.506587066708033 C45.37584461935119 18.581717877555818, 45.122703987241756 18.656848688403606, 44.43063938623541 18.86224982926107 M44.43063938623541 18.86224982926107 C43.98017245445476 18.965065966868558, 43.5297055226741 19.067882104476045, 43.211968259676766 19.140403561325773 M44.43063938623541 18.86224982926107 C44.05926161416036 18.947014382270755, 43.687883842085306 19.031778935280435, 43.211968259676766 19.140403561325773 M43.211968259676766 19.140403561325773 C42.91791353703226 19.187944048454504, 42.62385881438776 19.235484535583236, 41.97797965284788 19.3399052695533 M43.211968259676766 19.140403561325773 C42.9533550523117 19.182214139117182, 42.694741844946634 19.224024716908588, 41.97797965284788 19.3399052695533 M41.97797965284788 19.3399052695533 C41.72781599622498 19.364038256641894, 41.47765233960209 19.38817124373049, 40.7337442896239 19.45993515863156 M41.97797965284788 19.3399052695533 C41.645859478699094 19.371944503320485, 41.31373930455031 19.403983737087668, 40.7337442896239 19.45993515863156 M40.7337442896239 19.45993515863156 C40.42526448248914 19.469827505626853, 40.11678467535439 19.479719852622143, 39.48437500000001 19.5 M40.7337442896239 19.45993515863156 C40.25171988065368 19.47539274322364, 39.769695471683455 19.490850327815718, 39.48437500000001 19.5 M39.48437500000001 19.5 C39.48437500000001 19.5, 39.484375 19.5, 39.484375 19.5 M39.48437500000001 19.5 C39.48437500000001 19.5, 39.484375 19.5, 39.484375 19.5 M39.484375 19.5 C12.682784791787807 19.5, -14.118805416424387 19.5, -39.48437499999999 19.5 M39.484375 19.5 C13.754746209701565 19.5, -11.97488258059687 19.5, -39.48437499999999 19.5 M-39.48437499999999 19.5 C-39.792392003302425 19.490122494222817, -40.10040900660485 19.480244988445634, -40.73374428962389 19.45993515863156 M-39.48437499999999 19.5 C-39.958357971729725 19.484800288648515, -40.432340943459465 19.46960057729703, -40.73374428962389 19.45993515863156 M-40.73374428962389 19.45993515863156 C-41.20270009269881 19.414695556310793, -41.671655895773725 19.369455953990023, -41.97797965284787 19.3399052695533 M-40.73374428962389 19.45993515863156 C-41.10565588967889 19.42405729386339, -41.477567489733886 19.388179429095228, -41.97797965284787 19.3399052695533 M-41.97797965284787 19.3399052695533 C-42.256293962504685 19.29490957032769, -42.5346082721615 19.249913871102084, -43.21196825967676 19.140403561325773 M-41.97797965284787 19.3399052695533 C-42.27018200014703 19.292664260105017, -42.56238434744619 19.245423250656735, -43.21196825967676 19.140403561325773 M-43.21196825967676 19.140403561325773 C-43.47685413263141 19.079945089365733, -43.74174000558607 19.019486617405697, -44.430639386235384 18.862249829261074 M-43.21196825967676 19.140403561325773 C-43.59111577609982 19.053865614870976, -43.97026329252288 18.967327668416182, -44.430639386235384 18.862249829261074 M-44.430639386235384 18.862249829261074 C-44.677613668007645 18.788949158825528, -44.924587949779905 18.71564848838998, -45.62898525146059 18.506587066708043 M-44.430639386235384 18.862249829261074 C-44.87686400608971 18.729812704369138, -45.32308862594403 18.5973755794772, -45.62898525146059 18.506587066708043 M-45.62898525146059 18.506587066708043 C-45.94390605629664 18.390693299432368, -46.2588268611327 18.274799532156695, -46.8020815951478 18.074876768247425 M-45.62898525146059 18.506587066708043 C-46.09683339851723 18.33441462385034, -46.564681545573855 18.162242180992635, -46.8020815951478 18.074876768247425 M-46.8020815951478 18.074876768247425 C-47.04667342676352 17.966603219950038, -47.29126525837924 17.85832967165265, -47.94510791279238 17.568892924097174 M-46.8020815951478 18.074876768247425 C-47.24433385509178 17.879104811717397, -47.68658611503576 17.68333285518737, -47.94510791279238 17.568892924097174 M-47.94510791279238 17.568892924097174 C-48.287959856870344 17.390027284478855, -48.6308118009483 17.211161644860532, -49.05336726407678 16.990714730406097 M-47.94510791279238 17.568892924097174 C-48.21274256459465 17.429268097680104, -48.480377216396924 17.28964327126304, -49.05336726407678 16.990714730406097 M-49.05336726407678 16.990714730406097 C-49.39754168540682 16.78207417360242, -49.74171610673687 16.573433616798745, -50.122305573605686 16.3427180453909 M-49.05336726407678 16.990714730406097 C-49.35073130989541 16.81045089832574, -49.648095355714034 16.630187066245387, -50.122305573605686 16.3427180453909 M-50.122305573605686 16.3427180453909 C-50.52232250346671 16.063683551573654, -50.92233943332773 15.784649057756408, -51.14753034457871 15.627565626425156 M-50.122305573605686 16.3427180453909 C-50.44373182467377 16.118505006963957, -50.76515807574185 15.894291968537011, -51.14753034457871 15.627565626425156 M-51.14753034457871 15.627565626425156 C-51.463941992910854 15.375235756947855, -51.780353641242996 15.122905887470553, -52.124828708501866 14.848196188198125 M-51.14753034457871 15.627565626425156 C-51.49553336953998 15.350042474767966, -51.84353639450125 15.072519323110773, -52.124828708501866 14.848196188198125 M-52.124828708501866 14.848196188198125 C-52.38905539860295 14.608232499303444, -52.65328208870403 14.368268810408761, -53.050184736767974 14.007812326905697 M-52.124828708501866 14.848196188198125 C-52.43486732731038 14.56662731776857, -52.74490594611889 14.285058447339011, -53.050184736767974 14.007812326905697 M-53.050184736767974 14.007812326905697 C-53.234430031713195 13.817563933054723, -53.418675326658416 13.62731553920375, -53.919795942968655 13.109867360095677 M-53.050184736767974 14.007812326905697 C-53.39658685880671 13.650123695757573, -53.74298898084544 13.292435064609451, -53.919795942968655 13.109867360095677 M-53.919795942968655 13.109867360095677 C-54.16838635982238 12.817858911263862, -54.416976776676094 12.525850462432045, -54.730088908126575 12.158051136245307 M-53.919795942968655 13.109867360095677 C-54.20600286414476 12.773672424847057, -54.49220978532087 12.437477489598434, -54.730088908126575 12.158051136245307 M-54.730088908126575 12.158051136245307 C-54.938069916392855 11.879375532628137, -55.14605092465913 11.600699929010965, -55.477733964640635 11.156274872382316 M-54.730088908126575 12.158051136245307 C-54.969986176684586 11.836610651468346, -55.20988344524259 11.515170166691385, -55.477733964640635 11.156274872382316 M-55.477733964640635 11.156274872382316 C-55.672042161180634 10.85776530344035, -55.866350357720634 10.559255734498386, -56.15965887860425 10.108655082055249 M-55.477733964640635 11.156274872382316 C-55.733222225691236 10.763776295204453, -55.98871048674183 10.371277718026588, -56.15965887860425 10.108655082055249 M-56.15965887860425 10.108655082055249 C-56.35866373037166 9.755301816315823, -56.55766858213907 9.401948550576398, -56.773061474273504 9.019496659696289 M-56.15965887860425 10.108655082055249 C-56.40427827696877 9.674308569858951, -56.64889767533329 9.239962057662654, -56.773061474273504 9.019496659696289 M-56.773061474273504 9.019496659696289 C-56.96788989827823 8.61493126859001, -57.16271832228295 8.210365877483731, -57.31542114880834 7.893275190886686 M-56.773061474273504 9.019496659696289 C-56.93544168059474 8.682310686890402, -57.09782188691599 8.345124714084514, -57.31542114880834 7.893275190886686 M-57.31542114880834 7.893275190886686 C-57.50300419469758 7.4299414408687845, -57.69058724058683 6.966607690850882, -57.784509229970325 6.73461856121551 M-57.31542114880834 7.893275190886686 C-57.44136192742223 7.582199032811071, -57.567302706036116 7.271122874735457, -57.784509229970325 6.73461856121551 M-57.784509229970325 6.73461856121551 C-57.90928075195087 6.358826616652442, -58.0340522739314 5.9830346720893735, -58.17839813421488 5.5482879393051325 M-57.784509229970325 6.73461856121551 C-57.86958793265803 6.478375064170548, -57.95466663534574 6.222131567125587, -58.17839813421488 5.5482879393051325 M-58.17839813421488 5.5482879393051325 C-58.275223134244314 5.179052249972432, -58.372048134273754 4.809816560639732, -58.49546928754556 4.339158212148136 M-58.17839813421488 5.5482879393051325 C-58.28714829792209 5.133576432470454, -58.3958984616293 4.718864925635776, -58.49546928754556 4.339158212148136 M-58.49546928754556 4.339158212148136 C-58.56608386728889 3.976567269562854, -58.63669844703222 3.613976326977572, -58.734419776581774 3.112197953150904 M-58.49546928754556 4.339158212148136 C-58.56443471041661 3.9850353415525657, -58.633400133287665 3.6309124709569955, -58.734419776581774 3.112197953150904 M-58.734419776581774 3.112197953150904 C-58.7763380461776 2.7870881318643157, -58.81825631577342 2.4619783105777273, -58.89426770250937 1.872449005199809 M-58.734419776581774 3.112197953150904 C-58.7707872505857 2.830139006346532, -58.807154724589616 2.54808005954216, -58.89426770250937 1.872449005199809 M-58.89426770250937 1.872449005199809 C-58.923308480192766 1.4201154514870815, -58.95234925787616 0.9677818977743537, -58.97435621591342 0.6250057626472781 M-58.89426770250937 1.872449005199809 C-58.91623650789165 1.530267128470236, -58.93820531327393 1.188085251740663, -58.97435621591342 0.6250057626472781 M-58.97435621591342 0.6250057626472781 C-58.97435621591342 0.2822227512745606, -58.97435621591342 -0.06056026009815696, -58.97435621591342 -0.6250057626472687 M-58.97435621591342 0.6250057626472781 C-58.97435621591342 0.1815293124319275, -58.97435621591342 -0.26194713778342316, -58.97435621591342 -0.6250057626472687 M-58.97435621591342 -0.6250057626472687 C-58.94631270294622 -1.0618061134275814, -58.91826918997902 -1.4986064642078942, -58.89426770250937 -1.8724490051997822 M-58.97435621591342 -0.6250057626472687 C-58.94455172765537 -1.0892347250162553, -58.91474723939732 -1.5534636873852417, -58.89426770250937 -1.8724490051997822 M-58.89426770250937 -1.8724490051997822 C-58.84130898561056 -2.2831863555853866, -58.78835026871176 -2.693923705970991, -58.734419776581774 -3.112197953150895 M-58.89426770250937 -1.8724490051997822 C-58.83073971704803 -2.365159515418224, -58.7672117315867 -2.8578700256366654, -58.734419776581774 -3.112197953150895 M-58.734419776581774 -3.112197953150895 C-58.65836687051964 -3.5027135519925534, -58.58231396445751 -3.893229150834212, -58.49546928754556 -4.339158212148126 M-58.734419776581774 -3.112197953150895 C-58.64960035793593 -3.5477277413068298, -58.56478093929009 -3.983257529462765, -58.49546928754556 -4.339158212148126 M-58.49546928754556 -4.339158212148126 C-58.37464836236464 -4.799900763983211, -58.25382743718371 -5.260643315818296, -58.17839813421489 -5.548287939305123 M-58.49546928754556 -4.339158212148126 C-58.4266711776404 -4.601515222505943, -58.35787306773525 -4.863872232863759, -58.17839813421489 -5.548287939305123 M-58.17839813421489 -5.548287939305123 C-58.093702596141206 -5.803377405581637, -58.009007058067525 -6.058466871858151, -57.78450922997033 -6.734618561215485 M-58.17839813421489 -5.548287939305123 C-58.084597832173294 -5.830799504005847, -57.9907975301317 -6.113311068706571, -57.78450922997033 -6.734618561215485 M-57.78450922997033 -6.734618561215485 C-57.64039759359382 -7.09057708927442, -57.4962859572173 -7.446535617333357, -57.31542114880834 -7.893275190886676 M-57.78450922997033 -6.734618561215485 C-57.654116910958976 -7.056690110137531, -57.52372459194761 -7.378761659059577, -57.31542114880834 -7.893275190886676 M-57.31542114880834 -7.893275190886676 C-57.11521570759027 -8.30900607328621, -56.9150102663722 -8.72473695568574, -56.773061474273504 -9.019496659696282 M-57.31542114880834 -7.893275190886676 C-57.17110019575659 -8.192960737872362, -57.026779242704826 -8.492646284858047, -56.773061474273504 -9.019496659696282 M-56.773061474273504 -9.019496659696282 C-56.619627339663765 -9.291934502586772, -56.46619320505402 -9.564372345477262, -56.15965887860425 -10.108655082055243 M-56.773061474273504 -9.019496659696282 C-56.638403348673215 -9.258595797313403, -56.50374522307293 -9.497694934930523, -56.15965887860425 -10.108655082055243 M-56.15965887860425 -10.108655082055243 C-56.02157272652118 -10.320792492978551, -55.8834865744381 -10.53292990390186, -55.47773396464064 -11.156274872382308 M-56.15965887860425 -10.108655082055243 C-55.988832711062635 -10.371089948648004, -55.81800654352102 -10.633524815240765, -55.47773396464064 -11.156274872382308 M-55.47773396464064 -11.156274872382308 C-55.200133948641245 -11.528233603939778, -54.922533932641855 -11.900192335497248, -54.73008890812659 -12.158051136245302 M-55.47773396464064 -11.156274872382308 C-55.25990572659923 -11.448144866797072, -55.04207748855782 -11.740014861211836, -54.73008890812659 -12.158051136245302 M-54.73008890812659 -12.158051136245302 C-54.44355230371188 -12.494633336185492, -54.15701569929717 -12.831215536125683, -53.91979594296866 -13.10986736009567 M-54.73008890812659 -12.158051136245302 C-54.46558278635236 -12.46875507770601, -54.20107666457813 -12.779459019166717, -53.91979594296866 -13.10986736009567 M-53.91979594296866 -13.10986736009567 C-53.581507274123965 -13.459178184694057, -53.24321860527927 -13.808489009292446, -53.050184736767996 -14.007812326905677 M-53.91979594296866 -13.10986736009567 C-53.60352646662993 -13.436441560622324, -53.2872569902912 -13.76301576114898, -53.050184736767996 -14.007812326905677 M-53.050184736767996 -14.007812326905677 C-52.7069797965981 -14.31950197286287, -52.36377485642819 -14.631191618820063, -52.12482870850189 -14.848196188198107 M-53.050184736767996 -14.007812326905677 C-52.76994892070609 -14.262315080419713, -52.489713104644196 -14.516817833933748, -52.12482870850189 -14.848196188198107 M-52.12482870850189 -14.848196188198107 C-51.905310222497796 -15.023256339154127, -51.6857917364937 -15.198316490110148, -51.14753034457872 -15.627565626425149 M-52.12482870850189 -14.848196188198107 C-51.76826489326868 -15.132546342284973, -51.41170107803548 -15.41689649637184, -51.14753034457872 -15.627565626425149 M-51.14753034457872 -15.627565626425149 C-50.89050588450474 -15.806854763363207, -50.63348142443076 -15.986143900301263, -50.122305573605715 -16.342718045390885 M-51.14753034457872 -15.627565626425149 C-50.874606936765325 -15.817945181051869, -50.60168352895193 -16.00832473567859, -50.122305573605715 -16.342718045390885 M-50.122305573605715 -16.342718045390885 C-49.90048705365945 -16.477185735732625, -49.678668533713186 -16.611653426074366, -49.05336726407679 -16.99071473040609 M-50.122305573605715 -16.342718045390885 C-49.80956364550078 -16.532304040083666, -49.49682171739585 -16.721890034776447, -49.05336726407679 -16.99071473040609 M-49.05336726407679 -16.99071473040609 C-48.767682696642055 -17.13975618624709, -48.48199812920733 -17.288797642088092, -47.94510791279239 -17.56889292409717 M-49.05336726407679 -16.99071473040609 C-48.74645371574266 -17.150831331984495, -48.43954016740853 -17.3109479335629, -47.94510791279239 -17.56889292409717 M-47.94510791279239 -17.56889292409717 C-47.50014639224817 -17.765864189927562, -47.05518487170394 -17.962835455757954, -46.802081595147804 -18.07487676824742 M-47.94510791279239 -17.56889292409717 C-47.55132559383173 -17.743208675563597, -47.15754327487106 -17.91752442703002, -46.802081595147804 -18.07487676824742 M-46.802081595147804 -18.07487676824742 C-46.38474661865385 -18.22845989739943, -45.967411642159895 -18.382043026551436, -45.62898525146062 -18.506587066708033 M-46.802081595147804 -18.07487676824742 C-46.46118780263665 -18.2003288350792, -46.12029401012549 -18.32578090191098, -45.62898525146062 -18.506587066708033 M-45.62898525146062 -18.506587066708033 C-45.29454922134521 -18.60584592495574, -44.960113191229794 -18.70510478320345, -44.43063938623541 -18.862249829261067 M-45.62898525146062 -18.506587066708033 C-45.20270621852904 -18.63310444609782, -44.776427185597456 -18.75962182548761, -44.43063938623541 -18.862249829261067 M-44.43063938623541 -18.862249829261067 C-44.08728033706278 -18.94061929160753, -43.743921287890146 -19.018988753953987, -43.211968259676766 -19.140403561325773 M-44.43063938623541 -18.862249829261067 C-44.03411240710228 -18.952754524667846, -43.63758542796915 -19.04325922007462, -43.211968259676766 -19.140403561325773 M-43.211968259676766 -19.140403561325773 C-42.94251010440026 -19.183967466191675, -42.67305194912377 -19.227531371057577, -41.97797965284788 -19.3399052695533 M-43.211968259676766 -19.140403561325773 C-42.75968468191187 -19.21352526266727, -42.307401104146976 -19.28664696400877, -41.97797965284788 -19.3399052695533 M-41.97797965284788 -19.3399052695533 C-41.53823494726556 -19.38232691243044, -41.098490241683244 -19.42474855530758, -40.7337442896239 -19.45993515863156 M-41.97797965284788 -19.3399052695533 C-41.65833323389972 -19.370741175158166, -41.33868681495155 -19.40157708076303, -40.7337442896239 -19.45993515863156 M-40.7337442896239 -19.45993515863156 C-40.297568846582266 -19.47392245612591, -39.86139340354063 -19.487909753620258, -39.48437500000001 -19.5 M-40.7337442896239 -19.45993515863156 C-40.40155432797988 -19.470587844132947, -40.069364366335854 -19.481240529634334, -39.48437500000001 -19.5 M-39.48437500000001 -19.5 C-39.48437500000001 -19.5, -39.48437500000001 -19.5, -39.484375 -19.5 M-39.48437500000001 -19.5 C-39.48437500000001 -19.5, -39.484375 -19.5, -39.484375 -19.5" stroke="#9370DB" stroke-width="1.3" fill="none" stroke-dasharray="0 0" style=""/></g><g class="label" style="" transform="translate(-46.609375, -12)"><rect/><foreignObject width="93.21875" height="24"><div xmlns="http://www.w3.org/1999/xhtml" style="display: table-cell; white-space: nowrap; line-height: 1.5; max-width: 200px; text-align: center;"><span class="nodeLabel"><p>User Request</p></span></div></foreignObject></g></g><g class="node default model" id="my-svg-flowchart-Model-1" data-look="classic" transform="translate(251.39453125, 148)"><rect class="basic label-container" style="fill:#0369A1 !important;stroke:#38BDF8 !important;stroke-width:2px !important" x="-43.78125" y="-27" width="87.5625" height="54"/><g class="label" style="color:#F0F9FF !important" transform="translate(-13.78125, -12)"><rect/><foreignObject width="27.5625" height="24"><div style="color: rgb(240, 249, 255) !important; display: table-cell; white-space: nowrap; line-height: 1.5; max-width: 200px; text-align: center;" xmlns="http://www.w3.org/1999/xhtml"><span style="color:#F0F9FF !important" class="nodeLabel"><p>LLM</p></span></div></foreignObject></g></g><g class="node default" id="my-svg-flowchart-Schema-4" data-look="classic" transform="translate(140.734375, 301)"><rect class="basic label-container" style="" x="-95.4921875" y="-27" width="190.984375" height="54"/><g class="label" style="" transform="translate(-65.4921875, -12)"><rect/><foreignObject width="130.984375" height="24"><div xmlns="http://www.w3.org/1999/xhtml" style="display: table-cell; white-space: nowrap; line-height: 1.5; max-width: 200px; text-align: center;"><span class="nodeLabel"><p>Schema Validation</p></span></div></foreignObject></g></g><g class="node default" id="my-svg-flowchart-Business-5" data-look="classic" transform="translate(140.734375, 405)"><rect class="basic label-container" style="" x="-97.734375" y="-27" width="195.46875" height="54"/><g class="label" style="" transform="translate(-67.734375, -12)"><rect/><foreignObject width="135.46875" height="24"><div xmlns="http://www.w3.org/1999/xhtml" style="display: table-cell; white-space: nowrap; line-height: 1.5; max-width: 200px; text-align: center;"><span class="nodeLabel"><p>Business Validation</p></span></div></foreignObject></g></g><g class="node default" id="my-svg-flowchart-Auth-6" data-look="classic" transform="translate(140.734375, 509)"><rect class="basic label-container" style="" x="-78.4375" y="-27" width="156.875" height="54"/><g class="label" style="" transform="translate(-48.4375, -12)"><rect/><foreignObject width="96.875" height="24"><div xmlns="http://www.w3.org/1999/xhtml" style="display: table-cell; white-space: nowrap; line-height: 1.5; max-width: 200px; text-align: center;"><span class="nodeLabel"><p>Authorization</p></span></div></foreignObject></g></g><g class="node default" id="my-svg-flowchart-Exec-7" data-look="classic" transform="translate(251.39453125, 613)"><rect class="basic label-container" style="" x="-82.109375" y="-27" width="164.21875" height="54"/><g class="label" style="" transform="translate(-52.109375, -12)"><rect/><foreignObject width="104.21875" height="24"><div xmlns="http://www.w3.org/1999/xhtml" style="display: table-cell; white-space: nowrap; line-height: 1.5; max-width: 200px; text-align: center;"><span class="nodeLabel"><p>Tool Execution</p></span></div></foreignObject></g></g><g class="node default ext" id="my-svg-flowchart-External-13" data-look="classic" transform="translate(251.39453125, 766)"><rect class="basic label-container" style="fill:#854D0E !important;stroke:#FACC15 !important;stroke-width:2px !important" x="-87.4921875" y="-27" width="174.984375" height="54"/><g class="label" style="color:#FEFCE8 !important" transform="translate(-57.4921875, -12)"><rect/><foreignObject width="114.984375" height="24"><div style="color: rgb(254, 252, 232) !important; display: table-cell; white-space: nowrap; line-height: 1.5; max-width: 200px; text-align: center;" xmlns="http://www.w3.org/1999/xhtml"><span style="color:#FEFCE8 !important" class="nodeLabel"><p>External System</p></span></div></foreignObject></g></g></g></g></g><defs><filter id="my-svg-drop-shadow" height="130%" width="130%"><feDropShadow dx="4" dy="4" stdDeviation="0" flood-opacity="0.06" flood-color="#000000"/></filter></defs><defs><filter id="my-svg-drop-shadow-small" height="150%" width="150%"><feDropShadow dx="2" dy="2" stdDeviation="0" flood-opacity="0.06" flood-color="#000000"/></filter></defs></svg>